<svg xmlns="http://www.w3.org/2000/svg" xmlns:xlink="http://www.w3.org/1999/xlink" width="10" height="9" viewBox="0 0 10 9">
  <defs>
    <clipPath id="clip-path">
      <path id="_Icon_小olor" data-name=" Icon 小olor" d="M5,0A4.961,4.961,0,0,0,0,4.91v2.2A1.951,1.951,0,0,0,2,9,1.951,1.951,0,0,0,4,7.105,1.951,1.951,0,0,0,2,5.211a2.058,2.058,0,0,0-1,.264V4.91a4,4,0,0,1,8,0v.564a2.058,2.058,0,0,0-1-.264A1.951,1.951,0,0,0,6,7.105,1.951,1.951,0,0,0,8,9a1.951,1.951,0,0,0,2-1.895V4.91A4.961,4.961,0,0,0,5,0" fill="#0d1c2e"/>
    </clipPath>
  </defs>
  <g id="headphones-fill" style="mix-blend-mode: multiply;isolation: isolate">
    <path id="_Icon_小olor-2" data-name=" Icon 小olor" d="M5,0A4.961,4.961,0,0,0,0,4.91v2.2A1.951,1.951,0,0,0,2,9,1.951,1.951,0,0,0,4,7.105,1.951,1.951,0,0,0,2,5.211a2.058,2.058,0,0,0-1,.264V4.91a4,4,0,0,1,8,0v.564a2.058,2.058,0,0,0-1-.264A1.951,1.951,0,0,0,6,7.105,1.951,1.951,0,0,0,8,9a1.951,1.951,0,0,0,2-1.895V4.91A4.961,4.961,0,0,0,5,0" fill="#0d1c2e"/>
  </g>
</svg>
