<svg xmlns="http://www.w3.org/2000/svg" xmlns:xlink="http://www.w3.org/1999/xlink" width="13" height="10.16" viewBox="0 0 13 10.16">
  <defs>
    <clipPath >
      <path  data-name=" Icon 小olor" d="M5,0A4.961,4.961,0,0,0,0,4.91v2.2A1.951,1.951,0,0,0,2,9,1.951,1.951,0,0,0,4,7.105,1.951,1.951,0,0,0,2,5.211a2.058,2.058,0,0,0-1,.264V4.91a4,4,0,0,1,8,0v.564a2.058,2.058,0,0,0-1-.264A1.951,1.951,0,0,0,6,7.105,1.951,1.951,0,0,0,8,9a1.951,1.951,0,0,0,2-1.895V4.91A4.961,4.961,0,0,0,5,0" fill="#0d1c2e"/>
    </clipPath>
    <clipPath id="clip-path-2">
      <rect width="13" height="10.089" fill="none"/>
    </clipPath>
    <clipPath id="clip-path-3">
      <path  data-name=" Icon 小olor" d="M7.184,1.143,11.932.025a.913.913,0,0,1,.738.141A.759.759,0,0,1,13,.784V8.112a.8.8,0,0,1-.642.76L7.184,10.089ZM.642,8.872A.8.8,0,0,1,0,8.112V.785A.761.761,0,0,1,.33.166.918.918,0,0,1,1.066.025l4.75,1.118v8.946Z" fill="#a9a9a9"/>
    </clipPath>
  </defs>
  <g id="headphones-fill" style="mix-blend-mode: multiply;isolation: isolate">
    <g id="book-open-fill" transform="translate(0 0.071)" clip-path="url(#clip-path-2)" style="isolation: isolate">
      <path id="_Icon_小olor-3" data-name=" Icon 小olor" d="M7.184,1.143,11.932.025a.913.913,0,0,1,.738.141A.759.759,0,0,1,13,.784V8.112a.8.8,0,0,1-.642.76L7.184,10.089ZM.642,8.872A.8.8,0,0,1,0,8.112V.785A.761.761,0,0,1,.33.166.918.918,0,0,1,1.066.025l4.75,1.118v8.946Z" transform="translate(0 0)" fill="#a9a9a9"/>
    </g>
  </g>
</svg>
